<?xml version="1.0" encoding="UTF-8" standalone="no"?>
<!-- Created with Inkscape (http://www.inkscape.org/) -->

<svg
   xmlns:dc="http://purl.org/dc/elements/1.1/"
   xmlns:cc="http://creativecommons.org/ns#"
   xmlns:rdf="http://www.w3.org/1999/02/22-rdf-syntax-ns#"
   xmlns:svg="http://www.w3.org/2000/svg"
   xmlns="http://www.w3.org/2000/svg"
   xmlns:sodipodi="http://sodipodi.sourceforge.net/DTD/sodipodi-0.dtd"
   xmlns:inkscape="http://www.inkscape.org/namespaces/inkscape"
   version="1.1"
   id="svg2"
   xml:space="preserve"
   width="566.92932"
   height="181.47467"
   viewBox="0 0 566.92932 181.47467"
   sodipodi:docname="logo-branco.svg"
   inkscape:version="0.92.0 unknown"><metadata
     id="metadata8"><rdf:RDF><cc:Work
         rdf:about=""><dc:format>image/svg+xml</dc:format><dc:type
           rdf:resource="http://purl.org/dc/dcmitype/StillImage" /><dc:title></dc:title></cc:Work></rdf:RDF></metadata><defs
     id="defs6"><clipPath
       clipPathUnits="userSpaceOnUse"
       id="clipPath18"><path
         d="M 0,136.106 H 425.197 V 0 H 0 Z"
         id="path16"
         inkscape:connector-curvature="0" /></clipPath><linearGradient
       x1="0"
       y1="0"
       x2="1"
       y2="0"
       gradientUnits="userSpaceOnUse"
       gradientTransform="matrix(108.21254,2.0188961,2.0188961,-108.21254,4.7481694,72.122513)"
       spreadMethod="pad"
       id="linearGradient166"><stop
         style="stop-opacity:1;stop-color:#daa744"
         offset="0"
         id="stop160" /><stop
         style="stop-opacity:1;stop-color:#7f3b4e"
         offset="0.5"
         id="stop162" /><stop
         style="stop-opacity:1;stop-color:#252f37"
         offset="1"
         id="stop164" /></linearGradient><linearGradient
       x1="0"
       y1="0"
       x2="1"
       y2="0"
       gradientUnits="userSpaceOnUse"
       gradientTransform="matrix(108.21243,2.0188942,2.0188942,-108.21243,4.82096,68.225677)"
       spreadMethod="pad"
       id="linearGradient188"><stop
         style="stop-opacity:1;stop-color:#daa744"
         offset="0"
         id="stop182" /><stop
         style="stop-opacity:1;stop-color:#7f3b4e"
         offset="0.5"
         id="stop184" /><stop
         style="stop-opacity:1;stop-color:#252f37"
         offset="1"
         id="stop186" /></linearGradient><linearGradient
       x1="0"
       y1="0"
       x2="1"
       y2="0"
       gradientUnits="userSpaceOnUse"
       gradientTransform="matrix(108.2122,2.0188897,2.0188897,-108.2122,4.8247585,68.027298)"
       spreadMethod="pad"
       id="linearGradient210"><stop
         style="stop-opacity:1;stop-color:#daa744"
         offset="0"
         id="stop204" /><stop
         style="stop-opacity:1;stop-color:#7f3b4e"
         offset="0.5"
         id="stop206" /><stop
         style="stop-opacity:1;stop-color:#252f37"
         offset="1"
         id="stop208" /></linearGradient><linearGradient
       x1="0"
       y1="0"
       x2="1"
       y2="0"
       gradientUnits="userSpaceOnUse"
       gradientTransform="matrix(108.19617,2.0185907,2.0185907,-108.19617,4.7150202,73.923935)"
       spreadMethod="pad"
       id="linearGradient232"><stop
         style="stop-opacity:1;stop-color:#daa744"
         offset="0"
         id="stop226" /><stop
         style="stop-opacity:1;stop-color:#7f3b4e"
         offset="0.5"
         id="stop228" /><stop
         style="stop-opacity:1;stop-color:#252f37"
         offset="1"
         id="stop230" /></linearGradient><linearGradient
       x1="0"
       y1="0"
       x2="1"
       y2="0"
       gradientUnits="userSpaceOnUse"
       gradientTransform="matrix(108.21238,2.0188932,2.0188932,-108.21238,4.8286934,67.81324)"
       spreadMethod="pad"
       id="linearGradient254"><stop
         style="stop-opacity:1;stop-color:#daa744"
         offset="0"
         id="stop248" /><stop
         style="stop-opacity:1;stop-color:#7f3b4e"
         offset="0.5"
         id="stop250" /><stop
         style="stop-opacity:1;stop-color:#252f37"
         offset="1"
         id="stop252" /></linearGradient><linearGradient
       x1="0"
       y1="0"
       x2="1"
       y2="0"
       gradientUnits="userSpaceOnUse"
       gradientTransform="matrix(108.21246,2.0188947,2.0188947,-108.21246,4.8334532,67.560623)"
       spreadMethod="pad"
       id="linearGradient276"><stop
         style="stop-opacity:1;stop-color:#daa744"
         offset="0"
         id="stop270" /><stop
         style="stop-opacity:1;stop-color:#7f3b4e"
         offset="0.5"
         id="stop272" /><stop
         style="stop-opacity:1;stop-color:#252f37"
         offset="1"
         id="stop274" /></linearGradient><linearGradient
       x1="0"
       y1="0"
       x2="1"
       y2="0"
       gradientUnits="userSpaceOnUse"
       gradientTransform="matrix(108.21205,2.018887,2.018887,-108.21205,4.8384552,67.292526)"
       spreadMethod="pad"
       id="linearGradient298"><stop
         style="stop-opacity:1;stop-color:#daa744"
         offset="0"
         id="stop292" /><stop
         style="stop-opacity:1;stop-color:#7f3b4e"
         offset="0.5"
         id="stop294" /><stop
         style="stop-opacity:1;stop-color:#252f37"
         offset="1"
         id="stop296" /></linearGradient><linearGradient
       x1="0"
       y1="0"
       x2="1"
       y2="0"
       gradientUnits="userSpaceOnUse"
       gradientTransform="matrix(108.21242,2.018894,2.018894,-108.21242,5.0431285,56.311809)"
       spreadMethod="pad"
       id="linearGradient320"><stop
         style="stop-opacity:1;stop-color:#daa744"
         offset="0"
         id="stop314" /><stop
         style="stop-opacity:1;stop-color:#7f3b4e"
         offset="0.5"
         id="stop316" /><stop
         style="stop-opacity:1;stop-color:#252f37"
         offset="1"
         id="stop318" /></linearGradient><linearGradient
       x1="0"
       y1="0"
       x2="1"
       y2="0"
       gradientUnits="userSpaceOnUse"
       gradientTransform="matrix(108.21185,2.0188832,2.0188832,-108.21185,4.2770505,97.39183)"
       spreadMethod="pad"
       id="linearGradient342"><stop
         style="stop-opacity:1;stop-color:#daa744"
         offset="0"
         id="stop336" /><stop
         style="stop-opacity:1;stop-color:#7f3b4e"
         offset="0.5"
         id="stop338" /><stop
         style="stop-opacity:1;stop-color:#252f37"
         offset="1"
         id="stop340" /></linearGradient><linearGradient
       x1="0"
       y1="0"
       x2="1"
       y2="0"
       gradientUnits="userSpaceOnUse"
       gradientTransform="matrix(108.21173,2.0188811,2.0188811,-108.21173,4.0394344,110.13854)"
       spreadMethod="pad"
       id="linearGradient364"><stop
         style="stop-opacity:1;stop-color:#daa744"
         offset="0"
         id="stop358" /><stop
         style="stop-opacity:1;stop-color:#7f3b4e"
         offset="0.5"
         id="stop360" /><stop
         style="stop-opacity:1;stop-color:#252f37"
         offset="1"
         id="stop362" /></linearGradient><linearGradient
       x1="0"
       y1="0"
       x2="1"
       y2="0"
       gradientUnits="userSpaceOnUse"
       gradientTransform="matrix(108.21169,2.0188804,2.0188804,-108.21169,5.2014174,47.849213)"
       spreadMethod="pad"
       id="linearGradient386"><stop
         style="stop-opacity:1;stop-color:#daa744"
         offset="0"
         id="stop380" /><stop
         style="stop-opacity:1;stop-color:#7f3b4e"
         offset="0.5"
         id="stop382" /><stop
         style="stop-opacity:1;stop-color:#252f37"
         offset="1"
         id="stop384" /></linearGradient><linearGradient
       x1="0"
       y1="0"
       x2="1"
       y2="0"
       gradientUnits="userSpaceOnUse"
       gradientTransform="matrix(108.21249,2.0188951,2.0188951,-108.21249,3.792073,123.3718)"
       spreadMethod="pad"
       id="linearGradient408"><stop
         style="stop-opacity:1;stop-color:#daa744"
         offset="0"
         id="stop402" /><stop
         style="stop-opacity:1;stop-color:#7f3b4e"
         offset="0.5"
         id="stop404" /><stop
         style="stop-opacity:1;stop-color:#252f37"
         offset="1"
         id="stop406" /></linearGradient><linearGradient
       x1="0"
       y1="0"
       x2="1"
       y2="0"
       gradientUnits="userSpaceOnUse"
       gradientTransform="matrix(108.21276,2.0189004,2.0189004,-108.21276,5.330605,40.882732)"
       spreadMethod="pad"
       id="linearGradient430"><stop
         style="stop-opacity:1;stop-color:#daa744"
         offset="0"
         id="stop424" /><stop
         style="stop-opacity:1;stop-color:#7f3b4e"
         offset="0.5"
         id="stop426" /><stop
         style="stop-opacity:1;stop-color:#252f37"
         offset="1"
         id="stop428" /></linearGradient><linearGradient
       x1="0"
       y1="0"
       x2="1"
       y2="0"
       gradientUnits="userSpaceOnUse"
       gradientTransform="matrix(108.21251,2.0188956,2.0188956,-108.21251,4.1939249,101.82254)"
       spreadMethod="pad"
       id="linearGradient452"><stop
         style="stop-opacity:1;stop-color:#daa744"
         offset="0"
         id="stop446" /><stop
         style="stop-opacity:1;stop-color:#7f3b4e"
         offset="0.5"
         id="stop448" /><stop
         style="stop-opacity:1;stop-color:#252f37"
         offset="1"
         id="stop450" /></linearGradient><linearGradient
       x1="0"
       y1="0"
       x2="1"
       y2="0"
       gradientUnits="userSpaceOnUse"
       gradientTransform="matrix(108.21153,2.0188773,2.0188773,-108.21153,4.4772558,86.673668)"
       spreadMethod="pad"
       id="linearGradient474"><stop
         style="stop-opacity:1;stop-color:#daa744"
         offset="0"
         id="stop468" /><stop
         style="stop-opacity:1;stop-color:#7f3b4e"
         offset="0.5"
         id="stop470" /><stop
         style="stop-opacity:1;stop-color:#252f37"
         offset="1"
         id="stop472" /></linearGradient><linearGradient
       x1="0"
       y1="0"
       x2="1"
       y2="0"
       gradientUnits="userSpaceOnUse"
       gradientTransform="matrix(108.21268,2.018899,2.018899,-108.21268,4.8909678,64.439186)"
       spreadMethod="pad"
       id="linearGradient496"><stop
         style="stop-opacity:1;stop-color:#daa744"
         offset="0"
         id="stop490" /><stop
         style="stop-opacity:1;stop-color:#7f3b4e"
         offset="0.5"
         id="stop492" /><stop
         style="stop-opacity:1;stop-color:#252f37"
         offset="1"
         id="stop494" /></linearGradient><linearGradient
       x1="0"
       y1="0"
       x2="1"
       y2="0"
       gradientUnits="userSpaceOnUse"
       gradientTransform="matrix(108.21205,2.018887,2.018887,-108.21205,4.4450769,88.379883)"
       spreadMethod="pad"
       id="linearGradient518"><stop
         style="stop-opacity:1;stop-color:#daa744"
         offset="0"
         id="stop512" /><stop
         style="stop-opacity:1;stop-color:#7f3b4e"
         offset="0.5"
         id="stop514" /><stop
         style="stop-opacity:1;stop-color:#252f37"
         offset="1"
         id="stop516" /></linearGradient><linearGradient
       x1="0"
       y1="0"
       x2="1"
       y2="0"
       gradientUnits="userSpaceOnUse"
       gradientTransform="matrix(108.2114,2.0188749,2.0188749,-108.2114,3.9420924,115.36991)"
       spreadMethod="pad"
       id="linearGradient540"><stop
         style="stop-opacity:1;stop-color:#daa744"
         offset="0"
         id="stop534" /><stop
         style="stop-opacity:1;stop-color:#7f3b4e"
         offset="0.5"
         id="stop536" /><stop
         style="stop-opacity:1;stop-color:#252f37"
         offset="1"
         id="stop538" /></linearGradient><linearGradient
       x1="0"
       y1="0"
       x2="1"
       y2="0"
       gradientUnits="userSpaceOnUse"
       gradientTransform="matrix(108.21116,2.0188704,2.0188704,-108.21116,5.0428982,56.389481)"
       spreadMethod="pad"
       id="linearGradient562"><stop
         style="stop-opacity:1;stop-color:#daa744"
         offset="0"
         id="stop556" /><stop
         style="stop-opacity:1;stop-color:#7f3b4e"
         offset="0.5"
         id="stop558" /><stop
         style="stop-opacity:1;stop-color:#252f37"
         offset="1"
         id="stop560" /></linearGradient><linearGradient
       x1="0"
       y1="0"
       x2="1"
       y2="0"
       gradientUnits="userSpaceOnUse"
       gradientTransform="matrix(108.21234,2.0188925,2.0188925,-108.21234,4.5843077,80.908073)"
       spreadMethod="pad"
       id="linearGradient584"><stop
         style="stop-opacity:1;stop-color:#daa744"
         offset="0"
         id="stop578" /><stop
         style="stop-opacity:1;stop-color:#7f3b4e"
         offset="0.5"
         id="stop580" /><stop
         style="stop-opacity:1;stop-color:#252f37"
         offset="1"
         id="stop582" /></linearGradient></defs><sodipodi:namedview
     pagecolor="#ffffff"
     bordercolor="#666666"
     borderopacity="1"
     objecttolerance="10"
     gridtolerance="10"
     guidetolerance="10"
     inkscape:pageopacity="0"
     inkscape:pageshadow="2"
     inkscape:window-width="2513"
     inkscape:window-height="1056"
     id="namedview4"
     showgrid="false"
     inkscape:zoom="0.63676368"
     inkscape:cx="283.46466"
     inkscape:cy="90.737335"
     inkscape:window-x="47"
     inkscape:window-y="24"
     inkscape:window-maximized="1"
     inkscape:current-layer="g10" /><g
     id="g10"
     inkscape:groupmode="layer"
     inkscape:label="Logo_Completo_ISA17"
     transform="matrix(1.3333333,0,0,-1.3333333,0,181.47467)"><g
       id="g12"
       style="fill:#ffffff"><g
         id="g14"
         clip-path="url(#clipPath18)"
         style="fill:#ffffff"><g
           id="g20"
           transform="translate(148.8067,51.1658)"
           style="fill:#ffffff"><path
             d="m 0,0 c -2.451,0 -4.065,0.434 -5.189,1.183 l 1.067,3.256 c 0.634,-0.432 1.816,-0.92 3.199,-0.92 1.644,0 2.653,0.951 2.653,2.363 0,1.266 -0.751,2.046 -2.768,2.94 -3.084,1.383 -3.949,3.546 -3.949,5.477 0,3.343 2.421,6.111 6.284,6.111 2.133,0 3.689,-0.52 4.641,-1.154 l -0.98,-2.853 c -0.691,0.432 -1.758,0.864 -2.969,0.864 -1.557,0 -2.393,-0.864 -2.393,-2.277 0,-1.441 1.009,-2.162 2.68,-2.911 C 6.11,10.35 6.658,8.244 6.658,6.228 6.658,2.653 3.92,0 0,0"
             style="fill:#ffffff;fill-opacity:1;fill-rule:nonzero;stroke:none"
             id="path22"
             inkscape:connector-curvature="0" /></g><g
           id="g24"
           transform="translate(172.0738,68.491)"
           style="fill:#ffffff"><path
             d="m 0,0 c -2.507,0 -2.998,-3.574 -2.998,-6.946 0,-3.403 0.462,-6.949 2.998,-6.949 2.565,0 2.999,3.546 2.999,6.949 C 2.999,-3.574 2.48,0 0,0 m 0,-17.325 c -5.534,0 -7.754,4.584 -7.754,10.205 0,5.591 2.22,10.204 7.754,10.204 5.535,0 7.755,-4.613 7.755,-10.204 0,-5.621 -2.22,-10.205 -7.755,-10.205"
             style="fill:#ffffff;fill-opacity:1;fill-rule:nonzero;stroke:none"
             id="path26"
             inkscape:connector-curvature="0" /></g><g
           id="g28"
           transform="translate(196.235,51.1375)"
           style="fill:#ffffff"><path
             d="m 0,0 c -3.949,0 -6.889,2.364 -6.889,6.17 v 13.98 h 4.698 V 6.198 c 0,-1.758 1.038,-2.651 2.392,-2.651 1.356,0 2.364,0.893 2.364,2.68 V 20.15 H 6.889 V 6.17 C 6.889,2.393 3.978,0 0,0"
             style="fill:#ffffff;fill-opacity:1;fill-rule:nonzero;stroke:none"
             id="path30"
             inkscape:connector-curvature="0" /></g><g
           id="g32"
           transform="translate(220.4249,68.1443)"
           style="fill:#ffffff"><path
             d="M 0,0 V -16.688 H -4.698 V 0 H -8.156 V 3.143 H 3.43 L 3.43,0 Z"
             style="fill:#ffffff;fill-opacity:1;fill-rule:nonzero;stroke:none"
             id="path34"
             inkscape:connector-curvature="0" /></g><g
           id="g36"
           transform="translate(242.7423,51.4558)"
           style="fill:#ffffff"><path
             d="M 0,0 V 8.59 H -5.017 V 0 h -4.698 v 19.832 h 4.698 V 11.645 H 0 v 8.187 H 4.698 L 4.698,0 Z"
             style="fill:#ffffff;fill-opacity:1;fill-rule:nonzero;stroke:none"
             id="path38"
             inkscape:connector-curvature="0" /></g><g
           id="g40"
           transform="translate(278.9288,64.8298)"
           style="fill:#ffffff"><path
             d="M 0,0 C -0.376,1.384 -0.462,2.393 -0.462,2.393 H -0.52 c 0,0 -0.115,-0.981 -0.519,-2.393 l -1.845,-6.458 h 4.642 z m 3.602,-13.374 -1.21,4.236 h -5.967 l -1.269,-4.236 h -4.179 l 6.457,19.832 h 4.554 l 6.429,-19.832 z"
             style="fill:#ffffff;fill-opacity:1;fill-rule:nonzero;stroke:none"
             id="path42"
             inkscape:connector-curvature="0" /></g><g
           id="g44"
           transform="translate(311.3048,51.4558)"
           style="fill:#ffffff"><path
             d="m 0,0 c -0.058,0.748 -0.979,11.414 -0.979,11.414 -0.117,1.239 -0.087,2.422 -0.087,2.422 h -0.057 c 0,0 -0.231,-1.152 -0.607,-2.422 0,0 -2.998,-10.405 -3.344,-11.414 h -2.334 c -0.318,0.835 -3.344,11.414 -3.344,11.414 -0.376,1.27 -0.604,2.422 -0.604,2.422 h -0.059 c 0,0 0.059,-1.152 -0.059,-2.422 0,0 -0.95,-10.552 -1.008,-11.414 h -3.863 l 2.105,19.832 h 4.554 L -6.602,8.733 c 0.347,-1.211 0.519,-2.22 0.519,-2.22 h 0.058 c 0,0 0.202,1.009 0.549,2.22 l 3.255,11.099 H 2.306 L 4.438,0 Z"
             style="fill:#ffffff;fill-opacity:1;fill-rule:nonzero;stroke:none"
             id="path46"
             inkscape:connector-curvature="0" /></g><g
           id="g48"
           transform="translate(325.1183,51.4558)"
           style="fill:#ffffff"><path
             d="M 0,0 V 19.832 H 10.146 V 16.688 H 4.698 V 11.645 H 9.454 V 8.59 H 4.698 V 3.141 h 5.448 V 0 Z"
             style="fill:#ffffff;fill-opacity:1;fill-rule:nonzero;stroke:none"
             id="path50"
             inkscape:connector-curvature="0" /></g><g
           id="g52"
           transform="translate(350.7218,68.9241)"
           style="fill:#ffffff"><path
             d="m 0,0 c -0.576,0 -1.009,-0.117 -1.354,-0.261 v -7.264 c 0.171,-0.057 0.605,-0.114 1.008,-0.114 2.422,0 3.603,1.471 3.603,3.862 C 3.257,-1.24 2.479,0 0,0 m 3.402,-17.468 -4.699,8.761 h -0.057 v -8.761 H -5.968 V 1.498 c 1.443,0.693 3.519,1.153 5.968,1.153 5.362,0 7.842,-2.422 7.842,-6.197 0,-2.595 -1.99,-4.64 -4.585,-5.043 v -0.06 l 5.276,-8.819 z"
             style="fill:#ffffff;fill-opacity:1;fill-rule:nonzero;stroke:none"
             id="path54"
             inkscape:connector-curvature="0" /></g><path
           d="m 368.196,71.287 h 4.668 V 51.455 h -4.668 z"
           style="fill:#ffffff;fill-opacity:1;fill-rule:nonzero;stroke:none"
           id="path56"
           inkscape:connector-curvature="0" /><g
           id="g58"
           transform="translate(390.254,51.1658)"
           style="fill:#ffffff"><path
             d="m 0,0 c -5.362,0 -7.812,4.843 -7.812,10.205 0,5.275 2.507,10.205 7.84,10.205 1.933,0 3.316,-0.432 4.295,-1.154 L 3.371,16.432 c -0.546,0.345 -1.237,0.604 -2.333,0.604 -3.057,0 -4.036,-3.4 -4.036,-6.803 0,-3.374 1.124,-6.658 4.007,-6.658 1.095,0 1.642,0.23 2.277,0.606 L 4.353,1.183 C 3.344,0.403 1.902,0 0,0"
             style="fill:#ffffff;fill-opacity:1;fill-rule:nonzero;stroke:none"
             id="path60"
             inkscape:connector-curvature="0" /></g><g
           id="g62"
           transform="translate(410.8409,64.8298)"
           style="fill:#ffffff"><path
             d="m 0,0 c -0.374,1.384 -0.461,2.393 -0.461,2.393 h -0.055 c 0,0 -0.119,-0.981 -0.521,-2.393 L -2.883,-6.458 H 1.758 Z M 3.604,-13.374 2.393,-9.138 H -3.573 L -4.84,-13.374 H -9.021 L -2.565,6.458 H 1.99 l 6.427,-19.832 z"
             style="fill:#ffffff;fill-opacity:1;fill-rule:nonzero;stroke:none"
             id="path64"
             inkscape:connector-curvature="0" /></g><g
           id="g66"
           transform="translate(146.276,38.8445)"
           style="fill:#ffffff"><path
             d="M 0,0 V -6.936 H 5.866 V -8.698 H 0 v -9.391 H -2.658 V 1.791 H 6.531 L 6.531,0 Z"
             style="fill:#ffffff;fill-opacity:1;fill-rule:nonzero;stroke:none"
             id="path68"
             inkscape:connector-curvature="0" /></g><g
           id="g70"
           transform="translate(159.7447,20.658)"
           style="fill:#ffffff"><path
             d="M 0,0 V 19.88 H 2.659 V 1.792 H 8.64 V 0 Z"
             style="fill:#ffffff;fill-opacity:1;fill-rule:nonzero;stroke:none"
             id="path72"
             inkscape:connector-curvature="0" /></g><g
           id="g74"
           transform="translate(180.6256,39.1619)"
           style="fill:#ffffff"><path
             d="m 0,0 c -3.641,0 -4.508,-4.363 -4.508,-8.38 0,-4.016 0.751,-8.351 4.508,-8.351 3.756,0 4.478,4.335 4.478,8.351 C 4.478,-4.363 3.611,0 0,0 m 0,-18.695 c -5.173,0 -7.195,4.536 -7.195,10.229 0,5.634 2.022,10.229 7.195,10.229 5.143,0 7.166,-4.595 7.166,-10.229 0,-5.693 -2.023,-10.229 -7.166,-10.229"
             style="fill:#ffffff;fill-opacity:1;fill-rule:nonzero;stroke:none"
             id="path76"
             inkscape:connector-curvature="0" /></g><g
           id="g78"
           transform="translate(199.9664,39.365)"
           style="fill:#ffffff"><path
             d="m 0,0 c -0.982,0 -1.733,-0.146 -2.253,-0.434 v -8.323 c 0.289,-0.086 1.011,-0.173 1.705,-0.173 3.236,0 4.797,1.619 4.797,4.479 C 4.249,-1.417 2.919,0 0,0 m 4.335,-18.609 -6.531,9.275 h -0.057 v -9.275 h -2.63 V 0.49 c 1.04,0.578 2.803,1.07 4.941,1.07 4.507,0 6.82,-2.197 6.82,-5.895 0,-3.381 -2.399,-5.403 -6.039,-5.462 v -0.058 l 6.502,-8.754 z"
             style="fill:#ffffff;fill-opacity:1;fill-rule:nonzero;stroke:none"
             id="path80"
             inkscape:connector-curvature="0" /></g><path
           d="m 214.09,40.635 h 2.658 v -19.88 h -2.658 z"
           style="fill:#ffffff;fill-opacity:1;fill-rule:nonzero;stroke:none"
           id="path82"
           inkscape:connector-curvature="0" /><g
           id="g84"
           transform="translate(229.8116,39.3357)"
           style="fill:#ffffff"><path
             d="m 0,0 c -1.068,0 -1.85,-0.202 -2.254,-0.376 v -8.321 l 0.866,-0.087 C 2.804,-9.189 4.335,-7.281 4.335,-4.393 4.335,-1.503 3.035,0 0,0 m -1.357,-10.403 -0.897,0.087 v -8.264 h -2.6 V 0.491 c 1.097,0.635 2.86,1.098 4.97,1.098 4.682,0 6.79,-2.515 6.79,-6.011 0,-3.524 -2.398,-6.558 -8.263,-5.981"
             style="fill:#ffffff;fill-opacity:1;fill-rule:nonzero;stroke:none"
             id="path86"
             inkscape:connector-curvature="0" /></g><g
           id="g88"
           transform="translate(248.2696,35.7419)"
           style="fill:#ffffff"><path
             d="m 0,0 c -0.491,1.561 -0.578,2.397 -0.578,2.397 h -0.058 c 0,0 -0.116,-0.836 -0.606,-2.397 l -2.371,-7.542 h 5.925 z m 4.623,-15.083 -1.878,5.952 h -6.819 l -1.937,-5.952 h -2.427 l 6.733,19.88 h 2.369 l 6.705,-19.88 z"
             style="fill:#ffffff;fill-opacity:1;fill-rule:nonzero;stroke:none"
             id="path90"
             inkscape:connector-curvature="0" /></g><g
           id="g92"
           transform="translate(270.1026,20.7556)"
           style="fill:#ffffff"><path
             d="m 0,0 7.021,9.969 c 1.561,2.225 1.879,3.496 1.879,4.71 0,2.341 -1.359,3.582 -4.103,3.582 -1.648,0 -2.688,-0.375 -3.555,-0.808 L 0.577,19.1 c 1.214,0.636 2.659,1.069 5,1.069 3.727,0 6.039,-2.196 6.039,-5.259 0,-1.472 -0.722,-3.237 -2.514,-5.635 L 3.785,2.109 h 8.063 V 0 Z"
             style="fill:#ffffff;fill-opacity:1;fill-rule:nonzero;stroke:none"
             id="path94"
             inkscape:connector-curvature="0" /></g><g
           id="g96"
           transform="translate(295.2813,39.4626)"
           style="fill:#ffffff"><path
             d="m 0,0 c -3.121,0 -3.584,-5.115 -3.584,-8.641 0,-3.553 0.463,-8.523 3.584,-8.523 3.121,0 3.583,4.97 3.583,8.523 C 3.583,-5.087 3.121,0 0,0 m 0,-18.898 c -4.854,0 -6.039,5.779 -6.039,10.229 0,4.449 1.185,10.229 6.039,10.229 4.854,0 6.039,-5.78 6.039,-10.229 0,-4.45 -1.185,-10.229 -6.039,-10.229"
             style="fill:#ffffff;fill-opacity:1;fill-rule:nonzero;stroke:none"
             id="path98"
             inkscape:connector-curvature="0" /></g><g
           id="g100"
           transform="translate(313.9591,20.8533)"
           style="fill:#ffffff"><path
             d="M 0,0 V 16.702 C -1.098,16.008 -3.381,15.43 -5.086,15.285 l -0.288,1.532 c 3.495,0.462 5.403,1.792 6.212,3.063 H 2.601 L 2.601,0 Z"
             style="fill:#ffffff;fill-opacity:1;fill-rule:nonzero;stroke:none"
             id="path102"
             inkscape:connector-curvature="0" /></g><g
           id="g104"
           transform="translate(336.3351,34.4226)"
           style="fill:#ffffff"><path
             d="M 0,0 C -2.167,-5.085 -4.305,-10.923 -5.027,-13.667 H -8.206 L -0.433,4.104 H -9.651 V 6.213 H 2.659 Z"
             style="fill:#ffffff;fill-opacity:1;fill-rule:nonzero;stroke:none"
             id="path106"
             inkscape:connector-curvature="0" /></g><path
           d="m 143.618,117.148 h 8.346 V 81.7 h -8.346 z"
           style="fill:#ffffff;fill-opacity:1;fill-rule:nonzero;stroke:none"
           id="path108"
           inkscape:connector-curvature="0" /><g
           id="g110"
           transform="translate(178.4654,81.6042)"
           style="fill:#ffffff"><path
             d="m 0,0 -11.798,19.888 c -1.082,1.855 -1.855,3.711 -1.855,3.711 h -0.103 c 0,0 0.205,-1.907 0.205,-3.866 V 0 h -7.006 v 35.448 h 7.368 L -2.318,17.261 c 1.082,-1.803 1.803,-3.401 1.803,-3.401 h 0.103 c 0,0 -0.206,1.701 -0.206,3.555 V 35.448 H 6.44 L 6.44,0 Z"
             style="fill:#ffffff;fill-opacity:1;fill-rule:nonzero;stroke:none"
             id="path112"
             inkscape:connector-curvature="0" /></g><g
           id="g114"
           transform="translate(204.5294,111.532)"
           style="fill:#ffffff"><path
             d="M 0,0 V -29.832 H -8.398 V 0 h -6.183 V 5.616 H 6.131 V 0 Z"
             style="fill:#ffffff;fill-opacity:1;fill-rule:nonzero;stroke:none"
             id="path116"
             inkscape:connector-curvature="0" /></g><g
           id="g118"
           transform="translate(215.755,81.6042)"
           style="fill:#ffffff"><path
             d="M 0,0 V 35.448 H 18.136 V 29.833 H 8.397 v -9.019 h 8.501 v -5.46 H 8.397 V 5.616 h 9.739 l 0,-5.616 z"
             style="fill:#ffffff;fill-opacity:1;fill-rule:nonzero;stroke:none"
             id="path120"
             inkscape:connector-curvature="0" /></g><g
           id="g122"
           transform="translate(250.1202,112.8274)"
           style="fill:#ffffff"><path
             d="m 0,0 c -1.03,0 -1.803,-0.208 -2.422,-0.465 v -12.982 c 0.31,-0.104 1.083,-0.206 1.805,-0.206 4.326,0 6.439,2.629 6.439,6.904 C 5.822,-2.216 4.432,0 0,0 m 6.079,-31.223 -8.396,15.663 h -0.105 v -15.663 h -8.243 V 2.68 C -8.089,3.915 -4.379,4.74 0,4.74 c 9.584,0 14.015,-4.328 14.015,-11.077 0,-4.637 -3.555,-8.295 -8.193,-9.017 v -0.103 l 9.429,-15.766 z"
             style="fill:#ffffff;fill-opacity:1;fill-rule:nonzero;stroke:none"
             id="path124"
             inkscape:connector-curvature="0" /></g><g
           id="g126"
           transform="translate(282.9337,105.6062)"
           style="fill:#ffffff"><path
             d="m 0,0 c -0.67,2.474 -0.824,4.277 -0.824,4.277 h -0.104 c 0,0 -0.206,-1.752 -0.926,-4.277 l -3.298,-11.541 h 8.295 z m 6.439,-23.906 -2.163,7.573 H -6.389 l -2.267,-7.573 h -7.471 l 11.54,35.448 h 8.142 l 11.49,-35.448 z"
             style="fill:#ffffff;fill-opacity:1;fill-rule:nonzero;stroke:none"
             id="path128"
             inkscape:connector-curvature="0" /></g><g
           id="g130"
           transform="translate(313.7462,81.1843)"
           style="fill:#ffffff"><path
             d="m 0,0 c -9.584,0 -13.963,8.656 -13.963,18.239 0,9.429 4.482,18.24 14.014,18.24 3.452,0 5.925,-0.773 7.678,-2.061 l -1.702,-5.05 c -0.978,0.62 -2.215,1.083 -4.173,1.083 -5.461,0 -7.214,-6.08 -7.214,-12.159 0,-6.029 2.01,-11.901 7.162,-11.901 1.959,0 2.937,0.411 4.071,1.081 L 7.778,2.112 C 5.976,0.722 3.399,0 0,0"
             style="fill:#ffffff;fill-opacity:1;fill-rule:nonzero;stroke:none"
             id="path132"
             inkscape:connector-curvature="0" /></g><g
           id="g134"
           transform="translate(339.088,111.532)"
           style="fill:#ffffff"><path
             d="M 0,0 V -29.832 H -8.397 V 0 H -14.58 V 5.616 H 6.132 V 0 Z"
             style="fill:#ffffff;fill-opacity:1;fill-rule:nonzero;stroke:none"
             id="path136"
             inkscape:connector-curvature="0" /></g><path
           d="m 350.321,117.148 h 8.347 V 81.7 h -8.347 z"
           style="fill:#ffffff;fill-opacity:1;fill-rule:nonzero;stroke:none"
           id="path138"
           inkscape:connector-curvature="0" /><g
           id="g140"
           transform="translate(378.1505,112.1516)"
           style="fill:#ffffff"><path
             d="m 0,0 c -4.483,0 -5.358,-6.391 -5.358,-12.419 0,-6.078 0.824,-12.417 5.358,-12.417 4.586,0 5.357,6.339 5.357,12.417 C 5.357,-6.391 4.431,0 0,0 m 0,-30.967 c -9.893,0 -13.86,8.192 -13.86,18.238 0,9.998 3.967,18.24 13.86,18.24 9.892,0 13.859,-8.242 13.859,-18.24 0,-10.046 -3.967,-18.238 -13.859,-18.238"
             style="fill:#ffffff;fill-opacity:1;fill-rule:nonzero;stroke:none"
             id="path142"
             inkscape:connector-curvature="0" /></g><g
           id="g144"
           transform="translate(418.7569,81.7)"
           style="fill:#ffffff"><path
             d="m 0,0 -11.8,19.887 c -1.081,1.856 -1.854,3.712 -1.854,3.712 h -0.103 c 0,0 0.205,-1.907 0.205,-3.867 V 0 h -7.006 v 35.448 h 7.369 L -2.319,17.26 c 1.082,-1.802 1.803,-3.4 1.803,-3.4 h 0.103 c 0,0 -0.206,1.701 -0.206,3.555 V 35.448 H 6.439 L 6.439,0 Z"
             style="fill:#ffffff;fill-opacity:1;fill-rule:nonzero;stroke:none"
             id="path146"
             inkscape:connector-curvature="0" /></g></g></g><g
       id="g148"
       style="fill:#ffffff"><g
         id="g150"
         style="fill:#ffffff"><g
           id="g156"
           style="fill:#ffffff"><g
             id="g158"
             style="fill:#ffffff"><path
               d="m 55.223,79.368 c -0.266,-0.716 0.099,-1.513 0.814,-1.781 v 0 c 0.974,-0.364 3.634,-1.738 4.228,-3.686 v 0 c 0.886,-2.906 0.119,-6.152 0.112,-6.182 v 0 c -0.183,-0.743 0.271,-1.492 1.014,-1.675 v 0 c 0.111,-0.027 0.222,-0.042 0.332,-0.042 v 0 c 0.623,0 1.188,0.423 1.344,1.055 v 0 c 0.039,0.162 0.961,4.002 -0.153,7.652 v 0 c -1.118,3.667 -5.72,5.404 -5.915,5.476 v 0 c -0.158,0.058 -0.32,0.086 -0.479,0.086 v 0 c -0.562,0 -1.09,-0.346 -1.297,-0.903"
               style="fill:#ffffff;stroke:none"
               id="path168"
               inkscape:connector-curvature="0" /></g></g></g></g><g
       id="g170"
       style="fill:#ffffff"><g
         id="g172"
         style="fill:#ffffff"><g
           id="g178"
           style="fill:#ffffff"><g
             id="g180"
             style="fill:#ffffff"><path
               d="m 43.669,84.242 c -2.182,-0.568 -3.934,-1.996 -5.208,-4.245 v 0 C 36.49,76.521 37.694,73.918 38.66,71.829 v 0 c 0.449,-0.968 0.872,-1.882 1,-2.838 v 0 c 0.017,-0.129 0.007,-0.557 -10e-4,-0.901 v 0 c -0.043,-1.749 -0.122,-5.005 1.533,-7.845 v 0 c 3.109,-5.335 6.508,-6.691 9.16,-6.691 v 0 c 0.481,0 0.938,0.045 1.363,0.118 v 0 c 3.57,0.617 6.707,3.607 8.835,7.276 v 0 c 0.268,0.463 0.245,1.041 -0.065,1.479 v 0 l -0.018,0.026 c -0.565,0.795 -1.77,0.748 -2.258,-0.096 v 0 c -1.832,-3.179 -4.43,-5.529 -6.964,-5.967 v 0 c -3.465,-0.617 -6.083,2.522 -7.671,5.244 v 0 c -1.26,2.164 -1.196,4.809 -1.157,6.389 v 0 c 0.013,0.575 0.023,0.991 -0.022,1.336 v 0 c -0.185,1.368 -0.717,2.517 -1.23,3.627 v 0 c -0.915,1.978 -1.576,3.406 -0.304,5.651 v 0 c 0.904,1.597 2.05,2.557 3.503,2.934 v 0 c 0.498,0.13 1.022,0.19 1.564,0.19 v 0 c 1.283,0 2.666,-0.336 4.054,-0.853 v 0 c 0.982,-0.365 2,0.477 1.812,1.509 v 0 c -0.002,0.01 -0.004,0.022 -0.005,0.033 v 0 c -0.088,0.482 -0.42,0.885 -0.88,1.053 v 0 c -1.663,0.609 -3.365,1.01 -5.014,1.011 v 0 c -0.756,0 -1.501,-0.085 -2.226,-0.272"
               style="fill:#ffffff;stroke:none"
               id="path190"
               inkscape:connector-curvature="0" /></g></g></g></g><g
       id="g192"
       style="fill:#ffffff"><g
         id="g194"
         style="fill:#ffffff"><g
           id="g200"
           style="fill:#ffffff"><g
             id="g202"
             style="fill:#ffffff"><path
               d="m 39.89,94.973 c -3.606,-0.938 -6.515,-3.319 -8.643,-7.076 v 0 C 28,82.164 29.937,77.976 31.646,74.281 v 0 c 0.836,-1.808 1.625,-3.514 1.877,-5.387 v 0 c 0.044,-0.318 0.026,-1.029 0.008,-1.784 v 0 c -0.073,-3.02 -0.21,-8.644 2.595,-13.456 v 0 C 41.439,44.536 47.16,42.226 51.595,42.226 v 0 c 0.786,0 1.532,0.074 2.228,0.194 v 0 c 5.288,0.913 10.025,4.925 13.57,10.112 v 0 c 0.366,0.536 0.31,1.256 -0.139,1.725 v 0 c -0.006,0.007 -0.013,0.013 -0.02,0.02 v 0 c -0.602,0.628 -1.63,0.552 -2.119,-0.167 v 0 C 61.972,49.493 57.848,45.913 53.353,45.138 v 0 C 47.961,44.204 42.828,47.631 38.509,55.04 v 0 c -2.413,4.14 -2.293,9.063 -2.22,12.003 v 0 c 0.023,0.978 0.04,1.685 -0.032,2.22 v 0 c -0.307,2.283 -1.223,4.262 -2.108,6.176 v 0 c -1.637,3.54 -3.051,6.598 -0.502,11.099 v 0 c 1.771,3.125 4.041,5.011 6.937,5.764 v 0 c 0.98,0.255 2.002,0.371 3.056,0.371 v 0 c 1.888,0 3.873,-0.377 5.875,-0.991 v 0 c 0.83,-0.255 1.68,0.334 1.751,1.199 v 0 l 0.002,0.028 c 0.052,0.632 -0.344,1.215 -0.951,1.4 v 0 c -2.258,0.69 -4.527,1.115 -6.725,1.115 v 0 c -1.263,0 -2.502,-0.141 -3.702,-0.451"
               style="fill:#ffffff;stroke:none"
               id="path212"
               inkscape:connector-curvature="0" /></g></g></g></g><g
       id="g214"
       style="fill:#ffffff"><g
         id="g216"
         style="fill:#ffffff"><g
           id="g222"
           style="fill:#ffffff"><g
             id="g224"
             style="fill:#ffffff"><path
               d="m 55.539,90.117 v -0.031 c -0.004,-0.512 0.285,-0.978 0.742,-1.209 v 0 c 2.973,-1.502 5.786,-3.211 8.157,-4.655 v 0 l 1.447,-0.878 c 4.45,-2.681 6.193,-8.516 4.786,-16.011 v 0 C 70.25,65.093 69.53,62.765 68.574,60.491 v 0 c -0.207,-0.492 -0.125,-1.059 0.232,-1.455 v 0 c 0.006,-0.007 0.013,-0.015 0.02,-0.021 v 0 c 0.678,-0.752 1.897,-0.54 2.29,0.392 v 0 c 1.031,2.45 1.806,4.968 2.266,7.417 v 0 c 1.632,8.692 -0.582,15.575 -6.073,18.883 v 0 l -1.437,0.872 c -2.423,1.474 -5.28,3.208 -8.335,4.748 v 0 c -0.204,0.103 -0.416,0.15 -0.623,0.15 v 0 c -0.718,10e-4 -1.369,-0.568 -1.375,-1.36"
               style="fill:#ffffff;stroke:none"
               id="path234"
               inkscape:connector-curvature="0" /></g></g></g></g><g
       id="g236"
       style="fill:#ffffff"><g
         id="g238"
         style="fill:#ffffff"><g
           id="g244"
           style="fill:#ffffff"><g
             id="g246"
             style="fill:#ffffff"><path
               d="m 35.776,106.651 c -5.158,-1.341 -9.323,-4.757 -12.38,-10.156 v 0 C 18.756,88.307 21.427,82.534 24.01,76.949 v 0 c 1.258,-2.722 2.447,-5.292 2.834,-8.159 v 0 c 0.071,-0.525 0.046,-1.554 0.017,-2.744 v 0 C 26.753,61.639 26.553,53.438 30.612,46.475 v 0 C 38.323,33.245 46.57,29.896 52.945,29.896 v 0 c 1.119,0 2.181,0.104 3.171,0.275 v 0 c 7.656,1.323 14.53,7.141 19.677,14.681 v 0 c 0.403,0.591 0.279,1.439 -0.277,1.886 v 0 l -0.022,0.018 c -0.626,0.504 -1.546,0.364 -1.998,-0.3 v 0 C 68.739,39.479 62.473,34.068 55.646,32.889 v 0 c -8.274,-1.43 -16.109,3.748 -22.652,14.974 v 0 c -3.665,6.289 -3.484,13.692 -3.376,18.114 v 0 c 0.035,1.416 0.06,2.44 -0.039,3.18 v 0 c -0.442,3.28 -1.776,6.162 -3.066,8.95 v 0 c -2.5,5.405 -4.658,10.072 -0.718,17.028 v 0 c 2.714,4.791 6.205,7.685 10.675,8.847 v 0 c 1.505,0.392 3.071,0.568 4.682,0.568 v 0 c 3.309,0 6.799,-0.756 10.294,-1.946 v 0 c 0.769,-0.262 1.596,0.198 1.772,0.992 v 0 c 0.003,0.012 0.005,0.023 0.008,0.035 v 0 c 0.15,0.679 -0.238,1.361 -0.896,1.584 v 0 c -3.762,1.278 -7.557,2.089 -11.206,2.089 v 0 c -1.827,0 -3.617,-0.203 -5.348,-0.653"
               style="fill:#ffffff;stroke:none"
               id="path256"
               inkscape:connector-curvature="0" /></g></g></g></g><g
       id="g258"
       style="fill:#ffffff"><g
         id="g260"
         style="fill:#ffffff"><g
           id="g266"
           style="fill:#ffffff"><g
             id="g268"
             style="fill:#ffffff"><path
               d="m 30.934,120.4 c -6.983,-1.814 -12.63,-6.452 -16.782,-13.783 v 0 C 7.875,95.539 11.508,87.685 15.022,80.089 v 0 c 1.678,-3.629 3.415,-7.383 3.96,-11.424 v 0 C 19.085,67.9 19.05,66.46 19.009,64.792 v 0 C 18.851,58.333 18.587,47.519 24.12,38.027 v 0 C 34.654,19.954 45.878,15.382 54.536,15.382 v 0 c 1.511,0 2.943,0.139 4.28,0.371 v 0 c 10.918,1.885 20.676,10.488 27.802,21.485 v 0 c 0.43,0.664 0.24,1.552 -0.429,1.974 v 0 l -0.026,0.015 c -0.643,0.405 -1.496,0.222 -1.91,-0.415 v 0 C 77.501,28.405 68.358,20.2 58.347,18.471 v 0 C 46.676,16.457 35.665,23.698 26.502,39.415 v 0 c -5.139,8.818 -4.886,19.142 -4.735,25.309 v 0 c 0.045,1.859 0.081,3.327 -0.051,4.309 v 0 c -0.601,4.453 -2.425,8.399 -4.19,12.214 v 0 c -3.37,7.285 -6.552,14.164 -0.975,24.011 v 0 c 3.772,6.656 8.844,10.853 15.077,12.473 v 0 c 2.121,0.552 4.33,0.803 6.596,0.803 v 0 c 5.156,0 10.613,-1.303 16.034,-3.294 v 0 c 0.77,-0.283 1.612,0.171 1.799,0.97 v 0 c 0.002,0.009 0.004,0.018 0.006,0.027 v 0 c 0.158,0.677 -0.215,1.361 -0.869,1.601 v 0 c -5.694,2.087 -11.471,3.45 -16.99,3.45 v 0 c -2.486,0 -4.919,-0.276 -7.27,-0.888"
               style="fill:#ffffff;stroke:none"
               id="path278"
               inkscape:connector-curvature="0" /></g></g></g></g><g
       id="g280"
       style="fill:#ffffff"><g
         id="g282"
         style="fill:#ffffff"><g
           id="g288"
           style="fill:#ffffff"><g
             id="g290"
             style="fill:#ffffff"><path
               d="m 35.056,136.106 c -3.166,-0.003 -6.263,-0.356 -9.254,-1.135 v 0 C 16.884,132.652 9.669,126.723 4.356,117.343 v 0 C 1.21,111.791 0.017,106.867 0,102.347 v 0 -0.191 C 0.025,95.245 2.788,89.273 5.496,83.42 v 0 C 7.68,78.699 9.938,73.818 10.65,68.533 v 0 c 0.137,-1.021 0.094,-2.809 0.038,-5.071 v 0 C 10.485,55.153 10.145,41.248 17.24,29.074 v 0 C 30.767,5.866 45.143,0 56.22,0 v 0 c 1.925,0 3.753,0.177 5.457,0.472 v 0 c 14.828,2.561 27.994,14.796 37.256,30.117 v 0 c 0.432,0.716 0.148,1.656 -0.604,2.019 v 0 c -0.009,0.005 -0.017,0.009 -0.026,0.012 v 0 c -0.661,0.32 -1.449,0.083 -1.831,-0.545 v 0 C 87.562,17.407 75.021,5.576 61.207,3.19 v 0 C 45.94,0.557 31.56,9.983 19.624,30.462 v 0 c -6.703,11.5 -6.374,24.916 -6.179,32.932 v 0 c 0.06,2.385 0.105,4.27 -0.061,5.506 v 0 C 12.616,74.598 10.27,79.673 7.999,84.577 v 0 c -4.4,9.513 -8.556,18.498 -1.243,31.407 v 0 c 4.93,8.705 11.573,14.194 19.74,16.318 v 0 c 2.776,0.722 5.663,1.048 8.626,1.048 v 0 c 7.218,0 14.879,-1.944 22.442,-4.864 v 0 c 0.755,-0.292 1.591,0.122 1.804,0.903 v 0 c 0.002,0.009 0.005,0.018 0.007,0.027 v 0 c 0.183,0.674 -0.168,1.385 -0.818,1.637 v 0 c -7.838,3.023 -15.828,5.047 -23.428,5.053 v 0 z"
               style="fill:#ffffff;stroke:none"
               id="path300"
               inkscape:connector-curvature="0" /></g></g></g></g><g
       id="g302"
       style="fill:#ffffff"><g
         id="g304"
         style="fill:#ffffff"><g
           id="g310"
           style="fill:#ffffff"><g
             id="g312"
             style="fill:#ffffff"><path
               d="M 81.303,63.898 C 80.38,60.117 78.931,56.231 77.071,52.538 v 0 c -0.292,-0.577 -0.16,-1.279 0.342,-1.691 v 0 l 0.021,-0.017 c 0.685,-0.561 1.726,-0.363 2.122,0.429 v 0 c 1.94,3.866 3.443,7.945 4.418,11.957 v 0 c 0.112,0.465 -0.031,0.951 -0.373,1.289 v 0 c -0.01,0.01 -0.02,0.02 -0.03,0.03 v 0 c -0.273,0.269 -0.615,0.393 -0.951,0.393 v 0 c -0.588,0 -1.158,-0.379 -1.317,-1.03"
               style="fill:#ffffff;stroke:none"
               id="path322"
               inkscape:connector-curvature="0" /></g></g></g></g><g
       id="g324"
       style="fill:#ffffff"><g
         id="g326"
         style="fill:#ffffff"><g
           id="g332"
           style="fill:#ffffff"><g
             id="g334"
             style="fill:#ffffff"><path
               d="m 57.245,101.481 c -0.002,-0.009 -0.005,-0.018 -0.007,-0.027 v 0 c -0.138,-0.626 0.179,-1.259 0.759,-1.532 v 0 c 3.448,-1.626 6.781,-3.492 9.83,-5.291 v 0 c 0.876,-0.519 1.982,0.08 2.052,1.097 v 0 c 10e-4,0.01 0.002,0.02 0.002,0.03 v 0 c 0.036,0.511 -0.223,0.997 -0.664,1.257 v 0 c -3.108,1.835 -6.513,3.742 -10.055,5.409 v 0 c -0.189,0.089 -0.386,0.131 -0.579,0.131 v 0 c -0.618,0 -1.195,-0.423 -1.338,-1.074"
               style="fill:#ffffff;stroke:none"
               id="path344"
               inkscape:connector-curvature="0" /></g></g></g></g><g
       id="g346"
       style="fill:#ffffff"><g
         id="g348"
         style="fill:#ffffff"><g
           id="g354"
           style="fill:#ffffff"><g
             id="g356"
             style="fill:#ffffff"><path
               d="m 60.068,114.082 c -0.003,-0.009 -0.005,-0.019 -0.006,-0.027 v 0 c -0.147,-0.634 0.175,-1.279 0.766,-1.55 v 0 c 3.266,-1.504 6.463,-3.176 9.521,-4.879 v 0 c 0.798,-0.443 1.796,0.007 1.995,0.897 v 0 l 0.006,0.029 c 0.132,0.592 -0.138,1.202 -0.669,1.497 v 0 c -3.107,1.732 -6.364,3.433 -9.7,4.967 v 0 c -0.188,0.087 -0.384,0.127 -0.576,0.127 v 0 c -0.614,0 -1.188,-0.415 -1.337,-1.061"
               style="fill:#ffffff;stroke:none"
               id="path366"
               inkscape:connector-curvature="0" /></g></g></g></g><g
       id="g368"
       style="fill:#ffffff"><g
         id="g370"
         style="fill:#ffffff"><g
           id="g376"
           style="fill:#ffffff"><g
             id="g378"
             style="fill:#ffffff"><path
               d="m 92.255,55.139 c -1.215,-3.463 -2.71,-6.913 -4.448,-10.24 v 0 c -0.338,-0.644 -0.136,-1.439 0.481,-1.825 v 0 c 0.008,-0.004 0.016,-0.011 0.025,-0.015 v 0 c 0.693,-0.433 1.619,-0.196 1.996,0.53 v 0 c 1.787,3.445 3.318,7.028 4.568,10.64 v 0 c 0.204,0.589 -0.027,1.24 -0.544,1.59 v 0 c -0.008,0.005 -0.016,0.011 -0.023,0.016 v 0 c -0.236,0.16 -0.499,0.235 -0.757,0.235 v 0 c -0.557,0 -1.093,-0.349 -1.298,-0.931"
               style="fill:#ffffff;stroke:none"
               id="path388"
               inkscape:connector-curvature="0" /></g></g></g></g><g
       id="g390"
       style="fill:#ffffff"><g
         id="g392"
         style="fill:#ffffff"><g
           id="g398"
           style="fill:#ffffff"><g
             id="g400"
             style="fill:#ffffff"><path
               d="m 63.358,127.336 c -0.003,-0.009 -0.005,-0.018 -0.007,-0.027 v 0 c -0.173,-0.644 0.148,-1.311 0.754,-1.588 v 0 c 3.217,-1.468 6.382,-3.066 9.458,-4.716 v 0 c 0.781,-0.418 1.737,-0.004 1.961,0.853 v 0 l 0.008,0.028 c 0.16,0.611 -0.114,1.257 -0.67,1.554 v 0 c -3.124,1.673 -6.342,3.296 -9.617,4.79 v 0 c -0.182,0.083 -0.373,0.122 -0.56,0.122 v 0 c -0.598,0 -1.161,-0.397 -1.327,-1.016"
               style="fill:#ffffff;stroke:none"
               id="path410"
               inkscape:connector-curvature="0" /></g></g></g></g><g
       id="g412"
       style="fill:#ffffff"><g
         id="g414"
         style="fill:#ffffff"><g
           id="g420"
           style="fill:#ffffff"><g
             id="g422"
             style="fill:#ffffff"><path
               d="m 104.392,48.255 c -1.282,-3.347 -2.758,-6.672 -4.415,-9.911 v 0 c -0.365,-0.711 -0.081,-1.584 0.642,-1.925 v 0 c 0.008,-0.003 0.017,-0.007 0.026,-0.011 v 0 c 0.689,-0.323 1.523,-0.038 1.867,0.64 v 0 c 1.689,3.329 3.19,6.751 4.498,10.209 v 0 c 0.256,0.676 -0.061,1.431 -0.711,1.745 v 0 c -0.008,0.005 -0.017,0.008 -0.025,0.014 v 0 c -0.192,0.093 -0.394,0.136 -0.592,0.136 v 0 c -0.553,0 -1.077,-0.339 -1.29,-0.897"
               style="fill:#ffffff;stroke:none"
               id="path432"
               inkscape:connector-curvature="0" /></g></g></g></g><g
       id="g434"
       style="fill:#ffffff"><g
         id="g436"
         style="fill:#ffffff"><g
           id="g442"
           style="fill:#ffffff"><g
             id="g444"
             style="fill:#ffffff"><path
               d="m 76.147,105.405 c -0.002,-0.009 -0.003,-0.018 -0.006,-0.028 v 0 c -0.127,-0.575 0.13,-1.167 0.636,-1.468 v 0 c 1.654,-0.988 3.246,-1.953 4.745,-2.864 v 0 c 0.462,-0.282 0.915,-0.558 1.362,-0.829 v 0 c 0.789,-0.48 1.816,-0.051 2.03,0.848 v 0 l 0.009,0.038 c 0.138,0.575 -0.111,1.172 -0.617,1.479 v 0 c -0.44,0.267 -0.888,0.537 -1.351,0.82 v 0 c -1.51,0.918 -3.109,1.889 -4.774,2.883 v 0 c -0.222,0.132 -0.462,0.193 -0.697,0.193 v 0 c -0.612,0 -1.192,-0.415 -1.337,-1.072"
               style="fill:#ffffff;stroke:none"
               id="path454"
               inkscape:connector-curvature="0" /></g></g></g></g><g
       id="g456"
       style="fill:#ffffff"><g
         id="g458"
         style="fill:#ffffff"><g
           id="g464"
           style="fill:#ffffff"><g
             id="g466"
             style="fill:#ffffff"><path
               d="m 88.943,96.162 0.001,-0.037 c 0.007,-0.326 0.141,-0.636 0.359,-0.879 v 0 c 3.408,-3.784 5.533,-8.856 6.294,-14.899 v 0 c 0.033,-0.266 0.138,-0.518 0.311,-0.721 v 0 c 0.009,-0.011 0.018,-0.022 0.028,-0.033 v 0 c 0.89,-1.044 2.591,-0.267 2.42,1.093 v 0 c -0.831,6.63 -3.208,12.216 -7.01,16.419 v 0 c -0.287,0.318 -0.655,0.46 -1.017,0.46 v 0 c -0.715,0 -1.404,-0.555 -1.386,-1.403"
               style="fill:#ffffff;stroke:none"
               id="path476"
               inkscape:connector-curvature="0" /></g></g></g></g><g
       id="g478"
       style="fill:#ffffff"><g
         id="g480"
         style="fill:#ffffff"><g
           id="g486"
           style="fill:#ffffff"><g
             id="g488"
             style="fill:#ffffff"><path
               d="m 95.706,70.521 c -0.164,-1.783 -0.419,-3.622 -0.774,-5.51 v 0 c -0.171,-0.914 -0.374,-1.836 -0.597,-2.763 v 0 c -0.13,-0.542 0.07,-1.114 0.524,-1.436 v 0 l 0.024,-0.017 c 0.798,-0.566 1.916,-0.142 2.141,0.809 v 0 c 0.231,0.97 0.439,1.937 0.619,2.896 v 0 c 0.368,1.961 0.634,3.872 0.807,5.732 v 0 c 0.042,0.442 -0.146,0.872 -0.482,1.161 v 0 c -0.009,0.007 -0.018,0.015 -0.027,0.023 v 0 c -0.268,0.23 -0.583,0.335 -0.889,0.335 v 0 c -0.656,0 -1.277,-0.478 -1.346,-1.23"
               style="fill:#ffffff;stroke:none"
               id="path498"
               inkscape:connector-curvature="0" /></g></g></g></g><g
       id="g500"
       style="fill:#ffffff"><g
         id="g502"
         style="fill:#ffffff"><g
           id="g508"
           style="fill:#ffffff"><g
             id="g510"
             style="fill:#ffffff"><path
               d="m 91.956,111.704 c -0.005,-0.009 -0.01,-0.02 -0.015,-0.031 v 0 c -0.27,-0.627 -0.017,-1.364 0.566,-1.719 v 0 c 0.898,-0.545 1.772,-1.075 2.616,-1.585 v 0 c 11.427,-6.884 16.584,-20.903 14.559,-38.934 v 0 c -0.062,-0.544 0.197,-1.082 0.674,-1.352 v 0 c 0.009,-0.005 0.017,-0.01 0.026,-0.015 v 0 c 0.854,-0.483 1.943,0.053 2.052,1.029 v 0 c 2.165,19.169 -3.478,34.159 -15.886,41.635 v 0 c -0.846,0.509 -1.718,1.038 -2.614,1.583 v 0 c -0.226,0.137 -0.476,0.203 -0.723,0.203 v 0 c -0.523,0 -1.03,-0.296 -1.255,-0.814"
               style="fill:#ffffff;stroke:none"
               id="path520"
               inkscape:connector-curvature="0" /></g></g></g></g><g
       id="g522"
       style="fill:#ffffff"><g
         id="g524"
         style="fill:#ffffff"><g
           id="g530"
           style="fill:#ffffff"><g
             id="g532"
             style="fill:#ffffff"><path
               d="m 79.319,118.988 c -0.003,-0.009 -0.006,-0.018 -0.007,-0.027 v 0 c -0.151,-0.594 0.121,-1.211 0.651,-1.516 v 0 c 2.082,-1.196 4.098,-2.389 6.04,-3.554 v 0 c 0.791,-0.473 1.802,-0.052 2.02,0.845 v 0 c 0.002,0.009 0.004,0.019 0.006,0.028 v 0 c 0.141,0.58 -0.098,1.188 -0.61,1.494 v 0 c -1.958,1.174 -3.986,2.375 -6.082,3.581 v 0 c -0.216,0.124 -0.45,0.181 -0.679,0.181 v 0 c -0.603,0 -1.179,-0.397 -1.339,-1.032"
               style="fill:#ffffff;stroke:none"
               id="path542"
               inkscape:connector-curvature="0" /></g></g></g></g><g
       id="g544"
       style="fill:#ffffff"><g
         id="g546"
         style="fill:#ffffff"><g
           id="g552"
           style="fill:#ffffff"><g
             id="g554"
             style="fill:#ffffff"><path
               d="m 108.576,62.425 c -0.501,-2.446 -1.125,-4.926 -1.871,-7.416 v 0 c -0.194,-0.648 0.096,-1.346 0.704,-1.643 v 0 l 0.025,-0.012 c 0.767,-0.373 1.69,0.042 1.93,0.86 v 0 c 0.725,2.476 1.406,5.198 1.899,7.516 v 0 c 0.179,0.745 -0.281,1.494 -1.026,1.672 v 0 c -0.108,0.026 -0.216,0.039 -0.323,0.039 v 0 c -0.611,0 -1.168,-0.408 -1.338,-1.016"
               style="fill:#ffffff;stroke:none"
               id="path564"
               inkscape:connector-curvature="0" /></g></g></g></g><g
       id="g566"
       style="fill:#ffffff"><g
         id="g568"
         style="fill:#ffffff"><g
           id="g574"
           style="fill:#ffffff"><g
             id="g576"
             style="fill:#ffffff"><path
               d="m 73.914,92.62 c -0.415,-0.643 -0.222,-1.491 0.421,-1.907 v 0 c 0.03,-0.02 0.088,-0.061 0.088,-0.061 v 0 c 5.466,-3.293 8.28,-9.638 8.096,-17.867 v 0 c -0.007,-0.327 0.095,-0.649 0.302,-0.901 v 0 c 0.008,-0.01 0.016,-0.02 0.024,-0.029 v 0 c 0.806,-0.981 2.392,-0.4 2.421,0.869 v 0 c 0.209,9.185 -3.082,16.401 -9.354,20.25 v 0 c 0,0 -0.053,0.033 -0.082,0.051 v 0 c -0.234,0.152 -0.496,0.224 -0.756,0.224 v 0 c -0.452,0 -0.895,-0.221 -1.16,-0.629"
               style="fill:#ffffff;stroke:none"
               id="path586"
               inkscape:connector-curvature="0" /></g></g></g></g></g></svg>