<?xml version="1.0" encoding="UTF-8"?>
<svg width="432px" height="166px" viewBox="0 0 432 166" version="1.1" xmlns="http://www.w3.org/2000/svg" xmlns:xlink="http://www.w3.org/1999/xlink">
    <!-- Generator: Sketch 46.2 (44496) - http://www.bohemiancoding.com/sketch -->
    <title>parabens</title>
    <desc>Created with Sketch.</desc>
    <defs></defs>
    <g id="Page-1" stroke="none" stroke-width="1" fill="none" fill-rule="evenodd">
        <g id="Desktop-Copy" transform="translate(-9.000000, -297.000000)">
            <g id="parabens" transform="translate(5.000000, 288.000000)">
                <path d="M25.0962279,103.469038 L27.7047419,98.3259842 L24.8612266,103.264523 L25.0962279,103.469038 Z M20.3506711,73.2158767 C19.9541065,72.9409546 19.7146989,72.7733192 19.4033223,72.6610035 C20.3462648,73.2142004 20.3506711,73.2158767 20.3506711,73.2158767 Z M13.6634164,71.915026 C13.8984177,71.9619639 14.1348877,72.0089018 14.3919203,72.0608688 C14.1290127,72.4430775 13.8940114,72.3039401 13.6634164,71.915026 Z M15.164487,70.1766468 C15.01908,70.0928291 14.8883605,70.0173932 14.7282659,69.9251937 C14.7282659,69.9251937 14.7282659,69.9251937 15.6785522,68.8975887 C15.6785522,68.8975887 15.4611761,69.4407274 15.164487,70.1766468 Z M50.6996155,67.5430946 C53.359536,68.5606415 55.4319534,69.812878 57.3883389,71.105347 C59.1376296,70.8740101 60.9647644,70.7868397 62.8153993,70.8421594 C67.7886136,70.9829731 72.6325771,71.242808 77.4045715,71.6065768 C76.7847557,70.9175953 77.9289181,70.9997366 78.5120149,70.9175953 C79.1156744,70.8622756 79.7105214,70.8069559 80.3068371,70.7516362 C75.217591,70.2604645 70.1151261,69.7223548 64.9215981,69.1373073 C60.2421355,68.6176375 55.1543582,68.3158938 50.6996155,67.5430946 Z M228.906948,65.0989703 C218.801894,65.0587378 208.799653,64.6027695 198.820912,63.3773547 C201.25905,63.2700681 203.688375,63.1627814 206.125045,63.0554947 C213.695023,63.6371896 221.282626,64.3211421 228.906948,65.0989703 Z M41.0087509,82.0988769 C41.0131572,82.0988769 41.0131572,82.0988769 41.0249072,82.0988769 C40.2420593,81.4635387 39.67365,81.0042177 39.67365,81.0042177 C40.2214966,81.4534806 40.6518427,81.8055149 41.0087509,82.0988769 Z M70.4338465,74.9257579 C70.248783,74.8134421 70.097501,74.722919 69.9565002,74.6391013 C70.4720342,74.7882968 71.025756,74.9509032 71.638228,75.1302731 C71.638228,75.1302731 71.638228,75.1302731 73.9823656,77.0815492 C73.9823656,77.0815492 72.2095748,76.0036535 70.4338465,74.9257579 Z M404.718737,103.272905 C402.12491,103.640027 399.66621,104.060791 397.471885,104.744744 C397.062102,104.848678 396.602381,104.82018 396.255754,104.721275 C396.407036,105.130305 395.912064,105.50078 394.977934,105.671768 C376.564117,109.063032 356.757917,110.412497 337.25428,112.221283 C337.12503,112.548172 336.866528,112.873385 336.430307,113.173452 C335.080519,114.194352 332.370661,114.72408 329.559458,114.539681 L327.438571,114.288228 C318.872775,113.72162 310.329011,113.156689 301.808746,112.591757 C300.065331,113.05946 298.042851,113.369586 295.84412,113.463461 C288.4783,114.729109 281.086041,115.931055 273.533688,116.854726 C274.009566,117.133 274.295973,117.471624 274.291567,117.840422 C274.14616,118.720508 272.395401,119.372609 270.355296,119.340759 L267.267967,119.396078 C270.223108,119.624063 273.181186,119.852047 276.127514,120.080031 C276.553454,120.096794 276.947081,120.152114 277.305458,120.229226 C280.545538,120.26443 283.817931,120.249343 287.146136,120.167201 C316.201105,119.387697 343.518533,116.056781 370.625929,112.219607 C371.070962,112.080469 371.765685,112.100586 372.160781,112.311806 C372.425157,112.52135 372.378157,112.81136 371.881717,112.927028 C354.795656,117.334163 340.012608,123.129319 320.695504,126.012648 C297.705037,129.470966 275.002446,132.362677 251.437694,134.597257 C226.794874,134.588875 203.996814,136.71114 178.866367,138.275178 C144.918966,140.420911 112.851574,140.769593 79.6385522,140.974108 C67.1937666,141.673148 55.7947366,138.006961 54.1820404,132.843791 C53.2435041,129.705656 56.0576443,126.736833 61.1777343,124.720179 C60.1569475,124.69671 59.1523171,124.674917 58.1388742,124.654801 L53.3301608,124.031197 C48.7770114,123.410946 44.8936155,122.123506 42.4451961,120.366687 L39.0758655,118.19078 C34.5946852,114.063596 27.3390212,110.600249 23.6730015,106.276932 L24.4940371,104.652544 L23.62747,104.179813 C20.7648608,102.986248 18.8378505,101.432268 18.1725032,99.7693251 L18.4486296,97.799609 C19.0478829,95.5449128 20.4799218,93.4260013 22.7785279,91.4344927 C22.6977462,90.597992 22.9738727,89.7799312 23.5716572,89.0088083 C21.6093966,86.985449 20.6826104,84.8732429 22.2336187,82.5380817 C21.0542061,81.9563868 21.2495509,81.0964172 22.6551522,80.6018927 C23.1398423,80.4359337 23.724408,80.3353524 24.3207237,80.300149 C24.3104424,80.2917672 24.3060361,80.2917672 24.3060361,80.2917672 C23.6583139,79.7771265 23.4659066,79.6262546 22.5919957,79.0546179 C21.4213956,78.8635135 20.7413607,78.7511978 20.7413607,78.7511978 C17.6217189,78.3840763 17.6217189,78.3840763 14.9221419,78.0672454 C12.5956294,77.3715584 11.1591842,76.4093312 11.1591842,76.4093312 C8.58592038,72.885635 8.58592038,72.885635 8.98395377,71.3685345 C9.13376707,71.2210154 9.30267423,71.0734962 9.48186269,70.9377115 C7.42266413,70.4314526 7.27872585,70.3912201 6.72206661,70.2336428 C6.14190725,69.9637498 5.7424051,69.6469189 5.7424051,69.6469189 C5.65427962,68.8305345 5.65427962,68.8305345 5.30177773,68.5354962 C5.18868337,68.2186653 5.21365226,67.9202742 5.21365226,67.9202742 C6.36515844,67.0116903 6.36515844,67.0116903 6.39600236,66.7535318 C6.66772257,66.5087841 7.04225583,66.309298 7.04225583,66.309298 C8.38910682,66.0360523 8.92667221,65.9254129 9.15286093,65.8801513 C12.0419077,67.9906811 12.0507203,67.9990629 12.0507203,67.9990629 C12.6793486,67.2698489 12.6793486,67.2698489 12.6793486,67.2698489 C13.3535085,68.2404579 13.3535085,68.2404579 13.3535085,68.2404579 C12.9716315,67.3503139 12.9716315,67.3503139 12.9716315,67.3503139 C14.4330456,67.8917762 14.4330456,67.8917762 14.4330456,67.8917762 C12.7645366,67.1105952 12.7645366,67.1105952 12.7645366,67.1105952 C16.2205239,67.4358079 16.2205239,67.4358079 17.6055626,67.4039572 C19.0434766,67.5112438 20.2757645,67.2983469 20.4211715,67.2782306 C20.3022021,67.0016322 20.2948583,66.8038224 20.2948583,66.8038224 C23.9887844,67.170944 23.9887844,67.170944 27.5916475,67.5296837 C27.9265243,67.7258172 28.1909007,67.9219506 28.4391208,68.1164077 C28.7842789,67.8733363 29.4745951,67.7308462 30.185474,67.8029294 C30.8185086,67.8532201 31.447137,67.9068634 32.0757654,67.957154 C32.2167661,67.9152452 32.3533606,67.8733363 32.4811426,67.8347802 C32.478205,67.7945477 32.4767363,67.7660497 32.4767363,67.7660497 C33.1185835,67.5984143 33.5636171,67.4827458 34.0732761,67.3503139 C34.3919966,67.251409 34.4022779,67.2480563 34.4022779,67.2480563 C34.4052154,67.2497326 34.4154967,67.256438 34.4213717,67.2597907 C35.5200026,66.9714578 37.1121362,66.555722 41.3260026,65.4526811 C42.4451961,65.5599677 43.4850767,65.7041342 44.4706132,65.8734459 C44.1518928,65.7426903 43.8478599,65.613611 43.5541083,65.4711209 C42.9651364,65.1844644 43.5027018,64.4066361 43.1825126,64.3328765 C35.2879389,62.6665806 26.6854239,61.9859809 18.2077533,61.0991896 C16.6875889,61.1930654 15.2599562,60.7287153 15.036705,60.0933771 C14.8384227,59.4446281 15.9238348,58.8629332 17.4836557,58.7824682 C34.6681231,54.5714668 55.7712365,55.1464563 73.4257063,58.5025171 C78.0728563,58.9132239 82.7449752,59.2635819 87.4332504,59.5971763 L86.7634968,59.2032331 C87.9781596,59.4043956 89.1898848,59.6038817 90.4001413,59.8050442 L90.7937684,59.8335422 C89.8728572,59.3557813 88.9548836,58.8780204 88.0413161,58.4036122 C87.4068127,58.2661512 86.7723093,58.1270138 86.1319309,57.9878764 C75.2616537,57.3927707 65.4004132,55.1732779 54.8987943,53.7584351 C49.2558265,52.990665 44.4089254,51.6261128 39.072928,50.6135949 C37.6981706,50.5348063 36.7464155,50.0218419 36.9094476,49.4367943 C37.0695422,48.8802448 38.3502991,48.4829489 39.6927438,48.550003 C57.497027,47.5542487 77.8187612,48.4728908 92.0715878,53.3494047 C95.3234178,53.3846082 98.4548096,53.7751987 101.051574,54.6586373 L101.198449,54.6754008 C100.516946,54.2697231 99.8750985,53.885838 99.1950636,53.4818367 C101.625858,53.7785514 102.921302,54.7608948 105.137658,55.178307 C104.871813,54.6469028 104.586874,54.0836478 104.31956,53.5522436 C116.310499,54.5681141 129.276694,54.1054404 140.379035,56.4573652 C140.825537,56.4892159 141.241196,56.5478883 141.659792,56.6048843 C146.437661,55.4666399 151.272812,54.368628 156.943686,54.2194325 C155.02402,54.0434153 153.151354,53.8724272 151.228749,53.69641 C155.345678,52.9973704 159.427356,52.5246385 163.832161,52.6000745 C175.759944,52.7526227 189.108016,55.2638011 195.411924,59.5183877 C218.528705,59.008776 241.677798,58.5997456 264.741703,57.5620825 C265.932866,57.4916756 267.002122,57.8370046 267.213623,58.3164418 C267.336998,58.7925264 266.549744,59.2585528 265.358582,59.3272833 C248.81743,61.0053137 232.033934,61.892105 215.219593,62.6514934 C229.272669,63.4913468 243.396245,64.2809096 257.798885,64.453574 C259.633363,64.3848435 261.479592,64.3144366 263.328758,64.2440298 C265.158831,64.1702702 266.971278,64.3060549 268.779319,64.5021883 C287.179918,64.52901 304.639043,64.7972266 323.409769,63.5902517 C339.441261,62.5442068 353.467899,61.4378131 369.43036,59.9357998 C391.848011,57.8152119 412.272559,55.6778605 434.427303,55.6694787 C437.373631,55.5202832 440.101114,56.4121036 440.446273,57.6475765 C440.801712,58.8746677 438.664669,60.0095594 435.710997,60.1587549 C389.509749,63.9741368 344.153036,68.5958449 295.851464,67.9906811 C290.640311,67.9152452 285.515815,67.8414856 280.417756,67.767726 C280.48385,67.9353614 280.545538,68.0996441 280.545538,68.2689559 C280.545538,68.9411739 280.059379,69.5614249 279.244219,70.082771 C285.035531,70.24873 290.867969,70.5169467 296.725375,70.8740101 C313.006556,69.46252 329.306832,68.0527062 346.66755,68.7752148 C358.587989,69.2982373 369.376016,70.7516362 380.400512,72.0943958 C394.369869,71.328302 408.299569,70.3493113 422.409926,69.6955332 C422.97246,69.6100391 423.558494,69.737442 423.761183,69.973808 C423.963872,70.2135266 423.659839,70.4549216 423.089961,70.5387393 C413.387346,72.0675742 403.446792,73.2192294 393.412239,74.2535399 C394.994091,75.0229864 395.937033,76.0204171 395.809251,77.1133999 C395.684407,78.2482916 394.457994,79.2574568 392.58239,79.9732599 L399.40624,80.0554013 C400.811841,80.0956338 401.919284,80.5348385 401.879628,81.0930644 C401.848784,81.70661 400.72959,82.1424621 399.393021,82.1256986 C390.11194,82.0435572 380.848484,81.9614159 371.586496,81.8775982 C360.46653,82.5012019 349.386221,83.0342825 338.244223,83.4852217 C339.789357,84.234552 340.926175,85.1515176 341.469616,86.1891808 L341.471084,86.209297 C343.196875,86.180799 344.915322,86.152301 346.629362,86.1254793 C378.098969,82.9621992 410.313236,81.2104092 442.79041,81.8340129 C443.426382,81.8256312 443.950729,82.0318227 443.962479,82.3000394 C443.974229,82.563227 443.482195,82.7778003 442.90938,82.757684 C433.105421,82.5665797 423.327899,82.5950777 413.582691,82.8062983 C413.598847,82.8113274 413.606191,82.8130037 413.623816,82.8180328 C414.015974,82.9739337 414.089412,83.2656193 413.657597,83.453371 C413.283064,83.61933 412.516372,83.6226827 412.130089,83.4701345 C411.677712,83.2890883 411.720306,83.0024317 412.088964,82.838149 C393.929241,83.2656193 375.900238,84.3535731 358.110643,85.939404 C374.642981,85.6745401 391.17532,85.5136101 407.685628,86.019869 C409.486325,85.6996854 411.281147,85.3795018 413.109751,85.0542891 C413.606191,84.9939404 414.258319,85.1481649 414.45807,85.3862072 C414.597602,85.6007805 414.23335,85.8656445 413.722223,85.9259932 C413.214032,86.0064582 412.711717,86.0869232 412.206465,86.1690645 C415.33345,86.2713221 417.742213,87.3609523 417.690807,88.7053882 C417.518962,90.0850276 414.834072,91.1478361 411.586649,91.0975455 C402.891602,91.3590567 394.227399,91.4965178 385.561728,91.5635719 L382.751994,91.8049669 C381.806114,92.0212166 380.869046,92.2357899 379.926104,92.4520396 C393.400488,92.9851202 406.848436,93.6372219 420.218539,94.3379379 C421.36417,94.3262034 422.343832,94.7134412 422.367332,95.1928785 C422.395238,95.6706394 421.465514,96.0779934 420.314008,96.0914042 C396.758069,98.012506 372.909847,99.3234149 348.957343,100.191766 C341.095082,102.250329 333.206384,104.315597 325.181091,106.416069 C326.190127,106.451272 327.21532,106.474741 328.239045,106.478094 C354.275716,106.474741 376.370241,100.585709 401.580001,99.3703528 C402.210098,99.3066513 402.735914,99.5161956 402.818164,99.7559142 C402.887196,99.9956329 402.458318,100.238704 401.81794,100.242057 C389.514155,101.048383 378.285501,103.06839 366.078654,104.476527 C355.967725,105.660033 346.351767,106.741282 336.954654,108.303644 C356.166007,107.743741 374.590106,105.185625 393.620802,104.038999 C394.453588,103.926683 395.29078,104.044028 395.821002,104.298834 C395.866533,104.164725 396.03544,104.038999 396.289535,103.96021 C398.667454,103.299727 401.262749,102.823642 403.912389,102.428023 C404.41911,102.315707 405.060957,102.419641 405.328271,102.682828 C405.592648,102.890696 405.284209,103.130415 404.718737,103.272905 L404.718737,103.272905 Z" id="Fill-165" fill="#1A1919" transform="translate(224.586997, 94.625597) rotate(-13.000000) translate(-224.586997, -94.625597) "></path>
                <text id="Parabéns-ixtepô!!!" transform="translate(185.607522, 103.553698) rotate(-15.000000) translate(-185.607522, -103.553698) " font-family="Caveat-Bold, Caveat" font-size="48" font-weight="bold" letter-spacing="-2.44000006" fill-opacity="0.87" fill="#FFFFFF">
                    <tspan x="61.5555226" y="119.553698">Parabéns ixtepô!!</tspan>
                    <tspan x="299.579522" y="119.553698">!</tspan>
                </text>
            </g>
        </g>
    </g>
</svg>